<svg id="Layer_1" data-name="Layer 1" xmlns="http://www.w3.org/2000/svg" viewBox="0 0 1188.01 659.55"><defs><style>.cls-1{fill:#313131;}.cls-2{fill:#959ca5;}.cls-3{fill:#536778;}.cls-4{fill:#6d8393;}.cls-5{fill:#166154;}.cls-6{fill:#848484;}.cls-7{fill:#101010;}.cls-8{fill:#ff0;}.cls-9{fill:#181818;}</style></defs><title>dumptruck</title><rect class="cls-1" x="63.03" y="488.65" width="616.32" height="56.34"/><path class="cls-2" d="M887.78,440.63H871.52c.54-25-4.49-33,16.28-33.4s9.92,16.71,9.92,16.71C884.63,423.72,887.78,440.63,887.78,440.63Z" transform="translate(-75.98 -202.72)"/><polygon class="cls-3" points="35.55 537.9 84.74 523.08 97.9 498.63 728.1 298.88 672.3 119.67 692.43 105.45 737.21 33.49 725.07 0 703.45 21.8 621.56 47.97 615.61 75 582.37 132.27 0 322.59 43.47 471.59 41.86 501.05 31.02 522.34 35.55 537.9"/><polygon class="cls-4" points="47.44 327.23 84.52 465.53 164.51 440.14 47.44 327.23"/><polyline class="cls-4" points="127.14 301.82 47.44 327.23 164.51 440.14"/><polygon class="cls-4" points="152.01 294.12 189.09 432.42 269.08 407.03 152.01 294.12"/><polyline class="cls-4" points="231.7 268.91 152 294.32 269.07 407.22"/><polygon class="cls-4" points="257.48 261.5 294.56 399.81 374.55 374.41 257.48 261.5"/><polyline class="cls-4" points="337.18 236.1 257.48 261.5 374.55 374.41"/><polygon class="cls-4" points="359.99 228.73 397.07 367.03 477.06 341.63 359.99 228.73"/><polyline class="cls-4" points="439.69 203.32 359.99 228.73 477.06 341.63"/><polygon class="cls-4" points="461.02 197.78 498.11 336.08 578.1 310.69 461.02 197.78"/><polyline class="cls-4" points="540.73 172.37 461.02 197.78 578.1 310.69"/><polygon class="cls-4" points="564.31 168.16 601.2 310.03 681.23 283.86 564.31 168.16"/><polyline class="cls-4" points="644.06 141.97 564.31 168.16 681.23 283.86"/><ellipse cx="819.49" cy="213.34" rx="5.09" ry="9.05"/><path class="cls-5" d="M1064.88,553.88l-28.57-101.05h24.23L1059.45,434l-20.92-5.81-141-.1-.18,268.6,365,.25.07-101Zm-47.22-2.44-.49,0-.6,0c-7.47,0-15,.23-22.45,0l-.3,0a122.77,122.77,0,0,1-17.51.82h-.71c-3.75,0-7.52,0-11.35.34-11.07.88-21,1.11-32-.56-10.76-1.63-16.81-12.45-17.39-22.61a22.16,22.16,0,0,1-.69-5.44c0-17.92-.32-35.83-.32-53.74v0a20.58,20.58,0,0,1,1.06-7.38c3.05-9.86,12.41-16.64,23.11-17.12a20.65,20.65,0,0,1,6.2.69,112.33,112.33,0,0,0,13.84.57c6.77-.35,13.46-.85,20.25-.86,9.7,0,20.31-.9,29.64,2.1a29,29,0,0,1,19.92,21.62c1.08,5.09,1.86,10,3.56,15a176.74,176.74,0,0,1,8.19,33.06,26.6,26.6,0,0,1,2.23,9.51C1042.4,540.35,1030.29,551.45,1017.66,551.44Z" transform="translate(-75.98 -202.72)"/><path class="cls-6" d="M897.38,686.52q-14,20.33-27.9,0l.17-248.22c8.16-15.09,17.69-12,27.9,0Z" transform="translate(-75.98 -202.72)"/><path class="cls-2" d="M755.35,681.12c87.65-3.25,171.8-4.19,246.5.17a173.91,173.91,0,0,1-.05,75.71c-78.7,6.15-161.24,5.43-246.5-.17A163.33,163.33,0,0,1,755.35,681.12Z" transform="translate(-75.98 -202.72)"/><path class="cls-7" d="M803.23,759.55l0-78.75q6.29-7.32,12.55,0l-.05,78.75Q809.5,765.29,803.23,759.55Z" transform="translate(-75.98 -202.72)"/><path class="cls-7" d="M854.91,760.92l.06-81q6.28-7.53,12.55,0l0,81Q861.19,766.83,854.91,760.92Z" transform="translate(-75.98 -202.72)"/><path class="cls-7" d="M987.06,760.84l.06-81.05q6.27-7.54,12.55,0l0,81.06Q993.33,766.74,987.06,760.84Z" transform="translate(-75.98 -202.72)"/><path class="cls-6" d="M1264,706.37c0-70.8-47.45-57.18-47.45-57.18l-114.76-.08c-7.3.3-50,2.71-81.15,34.06a91.26,91.26,0,0,0-25.78,80.17s-10,92.12,20.83,8.54C1029.62,690.55,1148.13,709.43,1264,706.37Z" transform="translate(-75.98 -202.72)"/><path class="cls-1" d="M1257,748.8a170.11,170.11,0,0,1-65.4,0c-7.51-20.29-9-39.37,0-56.35a138.65,138.65,0,0,1,65.4.05C1266.33,710.86,1266.26,729.64,1257,748.8Z" transform="translate(-75.98 -202.72)"/><ellipse class="cls-8" cx="1179.91" cy="413.51" rx="6.5" ry="20.32"/><circle class="cls-9" cx="158.07" cy="578.05" r="80.89"/><circle class="cls-9" cx="369.53" cy="578.2" r="80.89"/><circle class="cls-9" cx="598.41" cy="578.35" r="80.89"/><circle class="cls-6" cx="158.07" cy="578.05" r="46.01"/><circle class="cls-6" cx="369.53" cy="578.2" r="46.01"/><circle class="cls-6" cx="598.41" cy="578.35" r="46.01"/><circle class="cls-9" cx="1043.35" cy="578.66" r="80.89"/><circle class="cls-6" cx="1043.35" cy="578.66" r="46.01"/></svg>